# xmcd
#
# Track frame offsets:
#	150
#	22487
#	40286
#	61947
#	87480
#	109451
#	133760
#	166816
#	189671
#	202725
#	213363
#	249700
#	274340
#	293604
#	313918
#
# Disc length: 4425
#
# Revision: 1
# Processed by: cddbd v1.5.1PL0 Copyright (c) Steve Scherf et al.
# Submitted via: dBpowerAMP V4.0
# Normalized: r0:DSETVAR1
#
DISCID=ea11470f
DTITLE=Various Artist - Bay Blues Live In Concert
DYEAR=1997
DGENRE=Blues
TTITLE0=John Lee Hooker - Should've Been Gone
TTITLE1=John Hammond - Evil
TTITLE2=Elvin Bishop - Elvin's Blues
TTITLE3=AB Skhy - Willie and The Hand Jive
TTITLE4=Jefferson Airplane - Come Back Baby
TTITLE5=Commander Cody - Milk Cow Blues
TTITLE6=John Lee Hooker - Hard Times Blues
TTITLE7=John Hammond - Hey Bo Diddley
TTITLE8=Taj Mahal - Hesitation Blues
TTITLE9=Doc Watson - Windy and Warm
TTITLE10=John Lee Hooker - Hobo Blues
TTITLE11=Taj Mahal - Guitar Blues
TTITLE12=John Hammond - So Many Roads, So Many Trains
TTITLE13=John Lee Hooker - Monologue - Sally Mae
TTITLE14=Chambers Bothers - Mustang Sally
EXTD=
EXTT0=
EXTT1=
EXTT2=
EXTT3=
EXTT4=
EXTT5=
EXTT6=
EXTT7=
EXTT8=
EXTT9=
EXTT10=
EXTT11=
EXTT12=
EXTT13=
EXTT14=
PLAYORDER=
